<?xml version="1.0" encoding="utf-8"?>
<!-- Generator: Adobe Illustrator 26.1.0, SVG Export Plug-In . SVG Version: 6.00 Build 0)  -->
<svg version="1.1" id="Layer_1" xmlns="http://www.w3.org/2000/svg" xmlns:xlink="http://www.w3.org/1999/xlink" x="0px" y="0px"
	 viewBox="0 0 1024 1024" style="enable-background:new 0 0 1024 1024;" xml:space="preserve">
<style type="text/css">
	.st0{fill:#FFFFFF;}
</style>
<path class="st0" d="M510.5,127.6c-105.4,0-191.4,86-191.4,191.4s86,191.4,191.4,191.4c76,0,147.1-44.7,201.6-86.3
	c54.9-41.9,93.2-83.7,93.2-83.7l19.7-21.4l-20-21.7c0,0-38.6-41.9-93.2-83.5C657,172.2,586,127.6,510.5,127.6z M510.5,510.5
	c-176,0-319.1,143.1-319.1,319.1h63.8c0-140.8,114.4-255.3,255.3-255.3c59.3,0,113.1,21.2,156.5,54.9l44.7-45.4
	C656.5,538.9,586.9,510.5,510.5,510.5z M510.5,191.4c48.1,0,112.7,35.1,162.5,73.3c35.9,27.2,47.9,41.2,61.1,54.4
	c-13,13.4-24.9,27.2-60.6,54.4c-49.7,38.1-114,73.3-163,73.3c-70.8,0-127.6-56.8-127.6-127.6S439.7,191.4,510.5,191.4L510.5,191.4z
	 M906.3,510.8c-21.4,0.2-41.9,8.9-56.8,24.2L551.9,837.5L507.5,1024L694,979.8l6.3-6.4L996.8,682c31.7-30.9,32.2-83,0.5-114.4
	l-33.4-33.7C948.6,518.7,927.9,510.4,906.3,510.8L906.3,510.8z M906.8,574.1c4.2,0,8.5,1.7,11.9,5.2l33.4,33.4c7,6.7,7,16.9,0,23.9
	L662.1,921.5l-68.8,16.7l16.5-68.8l285.4-290.2C898.1,576,902.4,574.1,906.8,574.1z"/>
</svg>
