<?xml version="1.0" encoding="utf-8"?>
<!-- Generator: Adobe Illustrator 26.1.0, SVG Export Plug-In . SVG Version: 6.00 Build 0)  -->
<svg version="1.1" id="Layer_1" xmlns="http://www.w3.org/2000/svg" xmlns:xlink="http://www.w3.org/1999/xlink" x="0px" y="0px"
	 viewBox="0 0 461 461" style="enable-background:new 0 0 461 461;" xml:space="preserve">
<style type="text/css">
	.st0{fill:#F61C0D;}
	.st1{fill:#FFFFFF;}
</style>
<g>
	<path class="st0" d="M365.3,67.4H95.7C42.9,67.4,0,110.3,0,163.1v134.7c0,52.9,42.9,95.7,95.7,95.7h269.5
		c52.9,0,95.7-42.9,95.7-95.7V163.1C461,110.3,418.1,67.4,365.3,67.4z"/>
</g>
<g>
	<path class="st1" d="M305.6,150.3c-2.1,13-3.6,34.1-4.5,63.1c-0.9,39.8-7.6,66-20,78.6c-13.8,14.2-31.7,21.3-53.7,21.3
		c-20.7,0-37.6-5.2-50.8-15.7c-14.2-11.4-21.3-27-21.3-46.9c0-3.6,0.7-14.7,2-33.2c2.1-24.7,3.1-47.1,3.1-67.2l31.4,2
		c-4.3,52.4-6.5,85.2-6.5,98.4c0,12.1,4.1,21.4,12.4,27.9c7.5,6.3,17.4,9.4,29.6,9.4c14.7,0,25.9-6.2,33.7-18.6
		c5.8-9,9.6-28.3,11.2-57.9c1-12.1,1.6-32.8,1.6-62L305.6,150.3z"/>
</g>
</svg>
