<?xml version="1.0" encoding="utf-8"?>
<!-- Generator: Adobe Illustrator 26.1.0, SVG Export Plug-In . SVG Version: 6.00 Build 0)  -->
<svg version="1.1" id="Layer_1" xmlns="http://www.w3.org/2000/svg" xmlns:xlink="http://www.w3.org/1999/xlink" x="0px" y="0px"
	 viewBox="0 0 1144 326.2" style="enable-background:new 0 0 1144 326.2;" xml:space="preserve">
<style type="text/css">
	.st0{fill:#F61C0D;}
	.st1{enable-background:new    ;}
	.st2{fill:#FFFFFF;}
</style>
<g id="a">
</g>
<g id="b">
	<g id="c">
		<path class="st0" d="M365.3,0H95.7C42.9,0,0,42.9,0,95.7v134.7c0,52.9,42.9,95.7,95.7,95.7h269.5c52.9,0,95.7-42.9,95.7-95.7V95.7
			C461,42.9,418.1,0,365.3,0z"/>
		<g class="st1">
			<path class="st2" d="M305.6,82.9c-2.1,13-3.6,34.1-4.5,63.1c-0.9,39.8-7.6,66-20,78.6c-13.8,14.2-31.7,21.3-53.7,21.3
				c-20.7,0-37.6-5.2-50.8-15.7c-14.2-11.4-21.3-27-21.3-46.9c0-3.6,0.7-14.7,2-33.2c2.1-24.7,3.1-47.1,3.1-67.2l31.4,2
				c-4.3,52.4-6.5,85.2-6.5,98.4c0,12.1,4.1,21.4,12.4,27.9c7.5,6.3,17.4,9.4,29.6,9.4c14.7,0,25.9-6.2,33.7-18.6
				c5.8-9,9.6-28.3,11.2-57.9c1-12.1,1.6-32.8,1.6-62L305.6,82.9z"/>
		</g>
	</g>
</g>
<g>
	<path class="st2" d="M596.5,233.9v-18h-0.4c-4,7-9,12.2-15.1,15.5c-6.1,3.3-13.4,5-21.7,5c-7.7,0-14.1-1-19.2-3
		c-5.1-2-9.3-4.9-12.4-8.6c-3.2-3.7-5.4-8.1-6.7-13.2c-1.3-5.1-1.9-10.7-1.9-16.8V120h19.8v77c0,7,2,12.6,6.1,16.7
		c4.1,4.1,9.7,6.2,16.9,6.2c5.7,0,10.6-0.9,14.8-2.6c4.2-1.8,7.6-4.3,10.4-7.5c2.8-3.2,4.9-7,6.2-11.3c1.4-4.3,2.1-9.1,2.1-14.2V120
		h19.8v113.9H596.5z"/>
	<path class="st2" d="M627.8,94.5V76.9h125.6v17.6H701V234h-20.9V94.5H627.8z"/>
	<path class="st2" d="M824.9,233.9v-18h-0.4c-4,7-9,12.2-15.1,15.5c-6.1,3.3-13.4,5-21.7,5c-7.7,0-14.1-1-19.2-3
		c-5.1-2-9.3-4.9-12.4-8.6c-3.2-3.7-5.4-8.1-6.7-13.2c-1.3-5.1-1.9-10.7-1.9-16.8V120h19.8v77c0,7,2,12.6,6.1,16.7
		c4.1,4.1,9.7,6.2,16.9,6.2c5.7,0,10.6-0.9,14.8-2.6c4.2-1.8,7.6-4.3,10.4-7.5c2.8-3.2,4.9-7,6.2-11.3c1.4-4.3,2.1-9.1,2.1-14.2V120
		h19.8v113.9H824.9z"/>
	<path class="st2" d="M890.2,76.9v58.7h0.4c3.1-6.3,7.9-10.9,14.5-13.7c6.6-2.9,13.8-4.3,21.7-4.3c8.8,0,16.4,1.6,22.9,4.8
		c6.5,3.2,11.9,7.6,16.2,13.1c4.3,5.5,7.6,11.8,9.8,19c2.2,7.2,3.3,14.8,3.3,22.8c0,8.1-1.1,15.7-3.2,22.9
		c-2.1,7.2-5.3,13.5-9.7,18.8c-4.3,5.4-9.7,9.6-16.2,12.7c-6.5,3.1-14.1,4.6-22.7,4.6c-2.8,0-5.9-0.3-9.3-0.9
		c-3.4-0.6-6.8-1.6-10.2-2.9c-3.4-1.3-6.5-3.2-9.5-5.5s-5.5-5.2-7.6-8.6h-0.4v15.4h-19.8v-157H890.2z M957.2,160.5
		c-1.4-5-3.5-9.5-6.4-13.5c-2.9-3.9-6.5-7.1-11-9.4c-4.5-2.3-9.7-3.5-15.7-3.5c-6.3,0-11.6,1.2-16,3.7c-4.4,2.5-8,5.7-10.7,9.8
		c-2.8,4-4.8,8.6-6,13.7c-1.2,5.1-1.9,10.3-1.9,15.6c0,5.6,0.7,10.9,2,16.1c1.3,5.2,3.4,9.8,6.2,13.7c2.9,4,6.5,7.1,11.1,9.5
		c4.5,2.4,10,3.6,16.4,3.6c6.4,0,11.8-1.2,16.1-3.7c4.3-2.5,7.8-5.8,10.4-9.9c2.6-4.1,4.5-8.8,5.7-14c1.2-5.3,1.8-10.7,1.8-16.2
		C959.3,170.7,958.6,165.6,957.2,160.5z"/>
	<path class="st2" d="M1081.6,226.6c-8.7,6.5-19.7,9.7-33,9.7c-9.1,0-17-1.5-23.7-4.4c-6.7-2.9-12.3-7-16.8-12.3
		c-4.5-5.3-8-11.6-10.2-18.9c-2.3-7.3-3.6-15.3-3.8-24c0-8.7,1.3-16.6,4-23.8c2.6-7.2,6.3-13.4,11.1-18.7
		c4.8-5.3,10.4-9.4,16.9-12.3c6.5-2.9,13.7-4.4,21.5-4.4c10.4,0,19,2.1,25.9,6.3c6.9,4.2,12.3,9.5,16.5,15.9
		c4.1,6.4,7,13.5,8.5,21.1c1.3,6.4,2,12.6,2,18.4c0,1,0,2.1,0,3.3h-86.5c0,0.4,0,0.9,0,1.5c0,4.4,0.6,8.6,1.8,12.7
		c1.3,4.4,3.4,8.3,6.4,11.7c2.9,3.4,6.7,6.2,11.2,8.2c4.5,2,9.9,3.1,16.1,3.1c7.9,0,14.4-1.8,19.5-5.5c5.1-3.7,8.4-9.2,10-16.7h19.8
		C1096,210.5,1090.3,220.2,1081.6,226.6z M1076.2,153.6c-1.7-3.9-4-7.4-6.8-10.2c-2.9-2.9-6.2-5.1-10.1-6.8
		c-3.9-1.7-8.2-2.5-12.9-2.5c-4.8,0-9.2,0.8-13.1,2.5c-3.9,1.7-7.2,4-10,6.9c-2.8,2.9-5,6.3-6.6,10.2c-1.6,3.9-2.6,8-2.9,12.4h65.3
		C1078.9,161.7,1077.9,157.6,1076.2,153.6z"/>
</g>
</svg>
