<?xml version="1.0" encoding="utf-8"?>
<!-- Generator: Adobe Illustrator 26.1.0, SVG Export Plug-In . SVG Version: 6.00 Build 0)  -->
<svg version="1.1" id="Layer_1" xmlns="http://www.w3.org/2000/svg" xmlns:xlink="http://www.w3.org/1999/xlink" x="0px" y="0px"
	 viewBox="0 0 36 36" style="enable-background:new 0 0 36 36;" xml:space="preserve">
<style type="text/css">
	.st0{fill:#FFFFFF;}
</style>
<path class="st0" d="M27.1,34H8.9C7.2,34,6,32.6,6,31c0,0,0,0,0,0V11.2h2V31c0,0.5,0.3,1,0.9,1c0,0,0,0,0,0h18.3
	c0.5,0,0.9-0.5,0.9-1c0,0,0,0,0,0V11.2h2V31C30,32.6,28.8,34,27.1,34C27.1,34,27.1,34,27.1,34z"/>
<path class="st0" d="M30.8,9H5C4.4,9,4,8.6,4,8s0.4-1,1-1h25.8c0.6,0,1,0.4,1,1S31.3,9,30.8,9z"/>
<rect x="21" y="13" class="st0" width="2" height="15"/>
<rect x="13" y="13" class="st0" width="2" height="15"/>
<path class="st0" d="M23,5.9h-1.9V4h-6.2v1.9H13V4c0-1.1,0.8-1.9,1.9-2h6.2C22.2,2.1,23,2.9,23,4V5.9z"/>
</svg>
