<?xml version="1.0" encoding="utf-8"?>
<!-- Generator: Adobe Illustrator 26.1.0, SVG Export Plug-In . SVG Version: 6.00 Build 0)  -->
<svg version="1.1" id="Capa_1" xmlns="http://www.w3.org/2000/svg" xmlns:xlink="http://www.w3.org/1999/xlink" x="0px" y="0px"
	 viewBox="0 0 294.2 294.2" style="enable-background:new 0 0 294.2 294.2;" xml:space="preserve">
<style type="text/css">
	.st0{fill:#FFFFFF;}
</style>
<g>
	<path class="st0" d="M227,108.3c-2.8-41.8-37.6-74.9-80-74.9c-42.4,0-77.3,33.1-80,74.9C29,113.1,0,145.4,0,184.2
		c0,42.2,34.4,76.6,76.6,76.6h116.5c3.3,0,6-2.7,6-6s-2.7-6-6-6H76.6c-35.6,0-64.6-29-64.6-64.6c0-34.3,26.8-62.6,61.1-64.4
		c3.2-0.2,5.7-2.8,5.7-6c0-0.1,0-0.2,0-0.4c0.1-37.5,30.7-68,68.2-68c37.6,0,68.1,30.5,68.2,68.1c0,0.1,0,0.2,0,0.3
		c0,3.2,2.5,5.8,5.7,6c34.4,1.7,61.3,30,61.3,64.4c0,19.5-8.7,37.8-23.9,50.1c-2.6,2.1-3,5.9-0.9,8.4c2.1,2.6,5.9,3,8.4,0.9
		c18-14.6,28.3-36.3,28.3-59.4C294.2,145.3,265.1,112.9,227,108.3z"/>
	<path class="st0" d="M141,141.1v76.5c0,3.3,2.7,6,6,6s6-2.7,6-6v-76.5c0-3.3-2.7-6-6-6S141,137.8,141,141.1z"/>
	<path class="st0" d="M181.3,152.2c1.5,0,3.1-0.6,4.2-1.8c2.3-2.3,2.3-6.1,0-8.5l-34.3-34.3c-2.3-2.3-6.1-2.3-8.5,0L108.4,142
		c-2.3,2.3-2.3,6.1,0,8.5s6.1,2.3,8.5,0l30.1-30.1l30.1,30.1C178.2,151.6,179.7,152.2,181.3,152.2z"/>
</g>
</svg>
